<?xml version="1.0" encoding="utf-8"?>
<!-- Generator: Adobe Illustrator 23.0.3, SVG Export Plug-In . SVG Version: 6.00 Build 0)  -->
<svg version="1.1" id="Layer_1" xmlns="http://www.w3.org/2000/svg" xmlns:xlink="http://www.w3.org/1999/xlink" x="0px" y="0px"
	 viewBox="0 0 477 314.2" style="enable-background:new 0 0 477 314.2;" xml:space="preserve">
<style type="text/css">
	.st0{fill:#6B6B6B;}
	.st1{fill:#777777;}
	.st2{fill:#B7B7B7;}
	.st3{fill:url(#SVGID_1_);}
	.st4{fill:url(#SVGID_2_);}
	.st5{fill:#FFFFFF;}
</style>
<ellipse transform="matrix(0.2834 -0.959 0.959 0.2834 -880.1626 -493.4925)" cx="-770.3" cy="342.2" rx="52.2" ry="90.3"/>
<path class="st0" d="M-829.3,223.9c0.1,49.9,40.5,90.3,90.4,90.3s90.3-40.4,90.4-90.3H-829.3z"/>
<path class="st1" d="M-1100.1,7l309,178.4c5.8,3.4,5.9,8.7,0.1,12c-5.7,3.3-15.1,3.2-20.9-0.2l-309-178.4c-5.8-3.4-5.9-8.7-0.1-12
	C-1115.3,3.6-1106,3.7-1100.1,7z"/>
<ellipse transform="matrix(5.422033e-03 -1 1 5.422033e-03 -958.6146 -516.0366)" class="st2" cx="-738.7" cy="223.9" rx="52.2" ry="90.3"/>
<rect x="-1125.2" y="7.2" class="st1" width="5.7" height="5.7"/>
<path class="st2" d="M-1100.1,2.6l309,178.4c5.8,3.4,5.9,8.7,0.1,12c-5.7,3.3-15.1,3.2-20.9-0.2l-309-178.4c-5.8-3.4-5.9-8.7-0.1-12
	C-1115.3-0.9-1106-0.8-1100.1,2.6z"/>
<radialGradient id="SVGID_1_" cx="-725.5985" cy="282.5892" r="116.7092" gradientUnits="userSpaceOnUse">
	<stop  offset="0" style="stop-color:#525252"/>
	<stop  offset="1" style="stop-color:#1C1C1C"/>
</radialGradient>
<path class="st3" d="M-679.6,189.7c-32.9-19-86-19.1-118.7-0.2s-32.5,49.6,0.4,68.5c32.9,19,86,19.1,118.7,0.2
	C-646.5,239.4-646.7,208.7-679.6,189.7z"/>
<g>
	<path class="st0" d="M296.1,223.9c0.1,49.9,40.5,90.3,90.4,90.3s90.3-40.4,90.4-90.3H296.1z"/>
	<path class="st1" d="M25.2,7l309,178.4c5.8,3.4,5.9,8.7,0.1,12c-5.7,3.3-15.1,3.2-20.9-0.2L4.4,18.9c-5.8-3.4-5.9-8.7-0.1-12
		C10,3.6,19.4,3.7,25.2,7z"/>
	
		<ellipse transform="matrix(5.422033e-03 -1 1 5.422033e-03 160.6172 609.2802)" class="st2" cx="386.6" cy="223.9" rx="52.2" ry="90.3"/>
	<path class="st2" d="M25.2,2.6l309,178.4c5.8,3.4,5.9,8.7,0.1,12c-5.7,3.3-15.1,3.2-20.9-0.2L4.4,14.4c-5.8-3.4-5.9-8.7-0.1-12
		C10-0.9,19.4-0.8,25.2,2.6z"/>
	<radialGradient id="SVGID_2_" cx="399.7348" cy="282.5892" r="116.7092" gradientUnits="userSpaceOnUse">
		<stop  offset="0" style="stop-color:#525252"/>
		<stop  offset="1" style="stop-color:#1C1C1C"/>
	</radialGradient>
	<path class="st4" d="M445.8,189.7c-32.9-19-86-19.1-118.7-0.2c-32.7,18.9-32.5,49.6,0.4,68.5c32.9,19,86,19.1,118.7,0.2
		S478.7,208.7,445.8,189.7z"/>
</g>
<ellipse transform="matrix(5.422033e-03 -1 1 5.422033e-03 -1487.436 -1534.2443)" class="st5" cx="-1515" cy="-19.4" rx="5.2" ry="9"/>
<ellipse transform="matrix(5.422033e-03 -1 1 5.422033e-03 -1492.5701 -1529.1379)" class="st5" cx="-1515" cy="-14.2" rx="5.2" ry="9"/>
<rect x="-1524.3" y="-19.4" class="st5" width="18.3" height="5.1"/>
</svg>
