<?xml version="1.0" encoding="utf-8"?>
<!-- Generator: Adobe Illustrator 23.0.3, SVG Export Plug-In . SVG Version: 6.00 Build 0)  -->
<svg version="1.1" id="Layer_1" xmlns="http://www.w3.org/2000/svg" xmlns:xlink="http://www.w3.org/1999/xlink" x="0px" y="0px"
	 viewBox="0 0 1015.3 314.2" style="enable-background:new 0 0 1015.3 314.2;" xml:space="preserve">
<style type="text/css">
	.st0{fill:#6B6B6B;}
	.st1{fill:#777777;}
	.st2{fill:#B7B7B7;}
	.st3{fill:url(#SVGID_1_);}
	.st4{fill:url(#SVGID_2_);}
	.st5{fill:#FFFFFF;}
	.st6{fill:#F9F9F9;}
</style>
<ellipse transform="matrix(0.2834 -0.959 0.959 0.2834 -687.2744 -235.3695)" cx="-501.1" cy="342.2" rx="52.2" ry="90.3"/>
<path class="st0" d="M-560.1,223.9c0.1,49.9,40.5,90.3,90.4,90.3s90.3-40.4,90.4-90.3H-560.1z"/>
<path class="st1" d="M-831,7l309,178.4c5.8,3.4,5.9,8.7,0.1,12c-5.7,3.3-15.1,3.2-20.9-0.2l-309-178.4c-5.8-3.4-5.9-8.7-0.1-12
	C-846.2,3.6-836.8,3.7-831,7z"/>
<ellipse transform="matrix(5.422033e-03 -1 1 5.422033e-03 -690.9199 -246.8865)" class="st2" cx="-469.6" cy="223.9" rx="52.2" ry="90.3"/>
<rect x="-856.1" y="7.2" class="st1" width="5.7" height="5.7"/>
<path class="st2" d="M-831,2.6L-522,181c5.8,3.4,5.9,8.7,0.1,12c-5.7,3.3-15.1,3.2-20.9-0.2l-309-178.4c-5.8-3.4-5.9-8.7-0.1-12
	C-846.2-0.9-836.8-0.8-831,2.6z"/>
<radialGradient id="SVGID_1_" cx="-456.4445" cy="282.5892" r="116.7092" gradientUnits="userSpaceOnUse">
	<stop  offset="0" style="stop-color:#525252"/>
	<stop  offset="1" style="stop-color:#1C1C1C"/>
</radialGradient>
<path class="st3" d="M-410.4,189.7c-32.9-19-86-19.1-118.7-0.2c-32.7,18.9-32.5,49.6,0.4,68.5c32.9,19,86,19.1,118.7,0.2
	S-377.5,208.7-410.4,189.7z"/>
<g>
	<path class="st0" d="M565.2,223.9c0.1,49.9,40.5,90.3,90.4,90.3s90.3-40.4,90.4-90.3H565.2z"/>
	<path class="st1" d="M294.4,7l309,178.4c5.8,3.4,5.9,8.7,0.1,12c-5.7,3.3-15.1,3.2-20.9-0.2l-309-178.4c-5.8-3.4-5.9-8.7-0.1-12
		C279.2,3.6,288.5,3.7,294.4,7z"/>
	
		<ellipse transform="matrix(5.422033e-03 -1 1 5.422033e-03 428.3119 878.4303)" class="st2" cx="655.8" cy="223.9" rx="52.2" ry="90.3"/>
	<path class="st2" d="M294.4,2.6l309,178.4c5.8,3.4,5.9,8.7,0.1,12c-5.7,3.3-15.1,3.2-20.9-0.2l-309-178.4c-5.8-3.4-5.9-8.7-0.1-12
		C279.2-0.9,288.5-0.8,294.4,2.6z"/>
	<radialGradient id="SVGID_2_" cx="668.8889" cy="282.5892" r="116.7092" gradientUnits="userSpaceOnUse">
		<stop  offset="0" style="stop-color:#525252"/>
		<stop  offset="1" style="stop-color:#1C1C1C"/>
	</radialGradient>
	<path class="st4" d="M714.9,189.7c-32.9-19-86-19.1-118.7-0.2s-32.5,49.6,0.4,68.5c32.9,19,86,19.1,118.7,0.2
		C748,239.4,747.8,208.7,714.9,189.7z"/>
</g>
<ellipse transform="matrix(5.422033e-03 -1 1 5.422033e-03 -1219.7412 -1265.0942)" class="st5" cx="-1245.9" cy="-19.4" rx="5.2" ry="9"/>
<ellipse transform="matrix(5.422033e-03 -1 1 5.422033e-03 -1224.8754 -1259.9879)" class="st5" cx="-1245.9" cy="-14.2" rx="5.2" ry="9"/>
<rect x="-1255.1" y="-19.4" class="st5" width="18.3" height="5.1"/>
<g>
	<path class="st6" d="M64.6,237.9c-6.6,0-11.9-5.3-11.9-11.9V44c0-6.6,5.3-11.9,11.9-11.9c6.6,0,11.9,5.3,11.9,11.9V226
		C76.5,232.6,71.2,237.9,64.6,237.9z"/>
	<g>
		<path class="st6" d="M64.6,282.1c9.8-26.4,26.5-59.1,44.2-79.4l-44.2,16l-44.2-16C38.2,223,54.9,255.7,64.6,282.1z"/>
	</g>
</g>
<g>
	<path class="st6" d="M167.7,282.1c-6.6,0-11.9-5.3-11.9-11.9V88.1c0-6.6,5.3-11.9,11.9-11.9c6.6,0,11.9,5.3,11.9,11.9v182.1
		C179.6,276.8,174.3,282.1,167.7,282.1z"/>
	<g>
		<path class="st6" d="M167.7,32.1c-9.8,26.4-26.5,59.1-44.2,79.4l44.2-16l44.2,16C194.2,91.2,177.5,58.5,167.7,32.1z"/>
	</g>
</g>
</svg>
